<svg width="724" height="733" viewBox="0 0 724 733" fill="none" xmlns="http://www.w3.org/2000/svg">
<path d="M525.434 0.208675C516.845 0.58222 508.419 1.50363 501.498 2.79859C500.294 3.04762 499.008 3.27175 498.625 3.34646C498.242 3.39626 497.504 3.54568 496.984 3.6702C496.464 3.79471 495.288 4.01884 494.385 4.16826C493.482 4.34258 492.197 4.61651 491.513 4.79083C490.829 4.96515 489.789 5.23909 489.187 5.3885C485.002 6.43443 483.497 6.83288 479.613 7.95352C468.096 11.2407 454.965 16.3209 444.323 21.5506C437.949 24.6884 436.363 25.5351 431.384 28.374C429.989 29.1709 428.785 29.8184 428.73 29.8184C428.676 29.8184 427.828 30.3164 426.87 30.939C425.885 31.5616 425.037 32.0596 424.955 32.0596C424.791 32.0596 419.32 35.4714 416.83 37.115C414.478 38.7088 409.089 42.3446 408.487 42.7929C408.186 43.017 406.271 44.4115 404.246 45.9057C395.192 52.505 389.392 57.3113 378.121 67.671C371.829 73.4485 371.775 73.4983 368.683 76.6361C367.398 77.931 365.92 79.4501 365.373 79.998C361.516 83.833 350.546 96.1352 346.798 100.792C346.279 101.44 345.54 102.336 345.157 102.784C344.774 103.233 343.926 104.278 343.242 105.15C342.558 106.022 341.136 107.815 340.069 109.184C337.607 112.272 334.68 116.132 332.354 119.345C331.37 120.714 330.439 121.86 330.33 121.91C330.221 121.96 330.111 122.109 330.111 122.234C330.111 122.358 329.509 123.279 328.798 124.276C328.059 125.272 326.993 126.741 326.418 127.563C325.844 128.385 325.023 129.53 324.613 130.103C324.175 130.676 323.819 131.199 323.819 131.273C323.819 131.547 321.603 134.536 321.275 134.685C320.947 134.834 319.552 134.735 313.971 134.162C312.548 134.013 310.333 133.789 309.047 133.664C307.761 133.54 304.697 133.216 302.208 132.942C299.718 132.668 296.6 132.319 295.232 132.17C290.281 131.622 287.381 131.273 281.554 130.551C277.615 130.053 275.07 129.729 272.472 129.431C268.833 128.982 266.864 128.708 264.155 128.31C262.733 128.111 261.256 127.936 260.873 127.936C259.642 127.936 259.177 127.388 258.958 125.67C258.575 122.906 257.426 116.356 256.797 113.368C256.66 112.671 256.414 111.326 256.222 110.38C256.058 109.408 255.812 108.188 255.702 107.64C255.566 107.092 255.265 105.748 255.018 104.652C254.772 103.556 254.471 102.261 254.334 101.788C254.225 101.315 253.979 100.294 253.787 99.5469C253.377 97.6542 253.103 96.6581 252.146 93.0721C250.34 86.4728 249.957 85.128 249 82.2392C248.453 80.5956 247.906 78.9022 247.769 78.5038C247.222 76.5614 243.419 66.5254 242.599 64.8071C242.462 64.5332 242.024 63.562 241.641 62.6157C241.258 61.6942 240.684 60.3993 240.355 59.7518C240.027 59.1043 239.672 58.3323 239.535 58.0086C238.96 56.7136 238.659 56.1409 236.58 52.2311C234.419 48.147 231 42.4442 229.085 39.7049C228.538 38.9329 228.073 38.2107 228.073 38.1609C228.073 37.9866 224.626 33.4293 223.176 31.6861C215.708 22.7459 207.993 16.047 199.622 11.2158C193.029 7.40565 185.78 4.59161 179.105 3.19704C173.661 2.0515 173.634 2.0515 166.384 2.0764C158.971 2.0764 159.217 2.0515 152.569 3.42117C143.98 5.21418 133.748 9.99556 125.624 16.0719C122.587 18.3381 117.198 23.2191 114.681 25.9584C113.942 26.7802 113.259 27.5024 113.176 27.5771C112.328 28.2495 104.97 37.9866 104.97 38.4099C104.97 38.5095 104.723 38.8831 104.45 39.2566C103.793 40.1033 99.8266 47.1509 98.9786 48.9937C98.3494 50.3385 97.7476 51.6334 97.2825 52.6046C96.4345 54.3977 93.8356 61.3207 92.9602 64.06C92.249 66.376 91.3462 69.6383 91.0453 71.0329C90.8538 71.8547 90.6076 72.9753 90.4708 73.5232C89.6228 77.0843 88.6379 83.3599 87.9814 89.2121C87.6258 92.4744 87.7899 110.604 88.2276 114.364C88.6379 118 89.0483 120.814 89.3492 122.408C89.5133 123.18 89.8416 124.898 90.0878 126.193C91.1274 131.771 91.5651 133.639 92.3857 136.403C92.5225 136.877 92.8234 138.022 93.0696 138.943C93.3158 139.865 93.945 141.957 94.4648 143.551C95.0119 145.169 95.6958 147.261 95.9968 148.182C97.5013 152.889 101.194 161.555 104.751 168.777C106.611 172.563 112.137 182.349 113.642 184.516C113.97 185.039 114.271 185.487 114.271 185.562C114.271 185.612 114.763 186.384 115.365 187.23C115.967 188.102 116.541 188.999 116.651 189.198C117.636 191.165 128.687 206.082 131.04 208.622C131.232 208.821 131.751 209.444 132.189 209.992C134.733 213.105 143.131 222.518 144.089 223.315C144.171 223.39 145.156 224.386 146.277 225.556C147.399 226.727 149.068 228.395 149.943 229.292C151.913 231.209 165.646 243.711 168.162 245.852C170.132 247.521 174.427 251.007 175.685 252.003C176.15 252.352 177.135 253.124 177.874 253.722C178.64 254.319 179.926 255.315 180.719 255.938C181.54 256.56 182.716 257.457 183.318 257.93C183.947 258.403 184.932 259.125 185.506 259.549C186.081 259.947 186.765 260.47 187.038 260.669C188.625 261.915 190.212 263.085 191.196 263.757C191.826 264.181 192.728 264.803 193.193 265.152C194.698 266.223 202.713 271.677 205.257 273.37C211.577 277.579 223.668 284.975 230.945 289.084C235.814 291.823 235.842 291.848 235.623 293.043C235.541 293.541 235.158 296.53 234.775 299.668C233.872 307.213 233.106 313.165 232.586 316.826C232.067 320.487 231.711 322.927 231.355 325.542C230.562 331.245 229.577 337.744 228.62 343.472C228.483 344.294 228.291 345.514 228.209 346.211C227.963 347.905 227.443 348.577 226.376 348.577C225.583 348.577 222.601 348.976 218.908 349.573C218.17 349.698 216.61 349.922 215.489 350.071C214.367 350.221 212.89 350.445 212.206 350.569C211.522 350.669 209.799 350.968 208.376 351.192C206.954 351.416 205.394 351.715 204.929 351.839C204.464 351.964 203.808 352.064 203.452 352.064C203.096 352.064 202.44 352.163 201.975 352.288C201.51 352.437 199.841 352.761 198.254 353.06C193.221 354.006 185.835 355.625 180.199 357.069C175.521 358.264 175.275 358.314 172.266 359.211C170.679 359.659 168.6 360.282 167.615 360.555C165.865 361.054 162.527 362.124 161.46 362.523C161.159 362.622 160.475 362.847 159.956 363.021C159.436 363.195 158.752 363.419 158.451 363.519C158.15 363.643 156.81 364.142 155.442 364.64C154.101 365.163 152.46 365.785 151.831 366.034C151.174 366.283 150.6 366.507 150.545 366.507C149.697 366.507 134.979 373.356 132.818 374.75C132.435 375.024 132.025 375.223 131.943 375.223C131.587 375.223 124.31 379.631 121.794 381.374C112.547 387.775 104.915 395.096 99.7993 402.492C97.9938 405.082 93.7535 412.727 93.7535 413.35C93.7535 413.549 93.6441 413.823 93.5347 413.948C93.097 414.421 91.2094 420.273 90.717 422.788C88.9662 431.504 89.4313 440.17 92.0848 448.189C96.1883 460.591 105.708 472.744 118.101 481.46C119.222 482.257 120.207 482.979 120.289 483.078C120.453 483.253 126.827 487.287 126.991 487.287C127.019 487.287 127.867 487.71 128.797 488.233C136.347 492.392 146.496 496.526 154.758 498.792C161.296 500.585 161.433 500.61 166.384 501.606C170.159 502.353 171.965 502.652 174.454 503.001C178.448 503.549 179.98 503.723 183.974 503.997C186.245 504.171 188.132 504.395 188.132 504.52C188.132 504.794 206.078 504.769 206.68 504.495C206.926 504.346 208.923 504.121 211.112 503.972C218.17 503.474 227.826 502.129 232.723 500.984C233.243 500.859 235.048 500.461 236.69 500.112C238.358 499.763 240.574 499.24 241.614 498.967C242.681 498.693 243.966 498.369 244.486 498.244C250.86 496.651 263.827 492.392 269.38 490.076C270.064 489.802 271.295 489.304 272.116 488.98C274.332 488.134 286.396 482.58 289.077 481.186C293.727 478.77 301.059 474.711 304.396 472.719C307.624 470.776 317.774 464.252 318.074 463.903C318.157 463.828 319.251 463.031 320.536 462.16C322.616 460.715 331.397 454.266 331.753 453.917C331.835 453.842 332.929 452.946 334.215 451.925C340.397 446.944 342.668 445.002 349.808 438.477C353.337 435.265 357.276 431.554 358.562 430.259C359.847 428.964 360.996 427.769 361.16 427.619C361.297 427.47 362.227 426.549 363.212 425.527C364.197 424.531 365.127 423.585 365.264 423.436C366.249 422.489 370.845 417.509 372.814 415.317C374.073 413.873 375.167 412.653 375.249 412.578C375.796 412.13 382.909 403.638 386.219 399.504C393.058 390.937 396.286 386.704 399.869 381.574C401.128 379.781 402.249 378.286 402.386 378.262C402.496 378.212 402.605 378.087 402.605 377.963C402.605 377.714 407.392 370.816 407.994 370.193C408.24 369.919 408.678 369.795 409.143 369.869C409.526 369.919 411.14 370.093 412.727 370.243C419.703 370.89 424.435 371.388 438.524 372.982C441.697 373.331 450.834 374.426 452.941 374.725C453.925 374.85 455.649 375.074 456.77 375.223C457.892 375.373 460.6 375.721 462.789 375.995C464.977 376.294 467.412 376.593 468.205 376.643C470.038 376.817 470.339 377.191 470.722 379.955C470.914 381.125 471.132 382.694 471.269 383.441C471.406 384.188 471.625 385.533 471.762 386.43C472.309 389.692 473.239 394.299 473.485 395.046C473.622 395.47 473.731 396.067 473.731 396.391C473.731 396.69 473.841 397.362 473.977 397.86C474.114 398.358 474.388 399.429 474.552 400.251C476.139 407.523 478.984 417.808 481.254 424.656C481.801 426.299 482.321 427.868 482.403 428.142C482.458 428.416 482.622 428.864 482.759 429.138C482.896 429.412 483.06 429.861 483.114 430.135C483.306 430.782 485.44 436.46 485.768 437.107C485.905 437.381 486.397 438.552 486.862 439.722C487.792 441.988 488.039 442.561 489.16 444.778C489.543 445.574 489.871 446.272 489.871 446.322C489.871 446.371 490.254 447.168 490.692 448.065C491.157 448.961 491.513 449.758 491.513 449.833C491.513 450.181 496.027 458.101 497.805 460.89C498.899 462.608 499.993 464.326 500.212 464.725C500.431 465.123 501.771 467.016 503.221 468.958C514.766 484.573 529.319 495.38 545.268 500.162C555.444 503.225 566.469 503.648 576.454 501.332C577.357 501.108 578.533 500.859 579.053 500.735C581.569 500.237 587.506 498.045 591.089 496.327C600.91 491.595 609.527 484.896 617.269 475.956C619.239 473.69 624.054 467.29 624.792 465.97C625.011 465.572 625.476 464.8 625.832 464.252C626.57 463.081 629.607 457.528 630.428 455.884C632.343 452.024 635.379 444.479 636.364 441.092C637.54 437.157 638.717 432.724 638.99 431.38C639.154 430.558 639.4 429.387 639.51 428.765C641.343 419.576 641.78 414.844 641.78 404.111C641.78 393.677 641.315 388.322 639.783 380.328C639.647 379.631 639.4 378.286 639.236 377.34C639.072 376.369 638.826 375.149 638.689 374.601C638.552 374.053 638.251 372.758 638.005 371.737C637.786 370.716 637.458 369.471 637.321 368.998C637.185 368.524 636.802 367.105 636.501 365.885C635.653 362.647 633.491 356.197 631.659 351.441C630.428 348.228 628.349 343.372 627.227 341.056C626.899 340.409 626.652 339.811 626.652 339.761C626.652 339.687 626.297 338.94 625.859 338.068C625.421 337.196 624.792 335.926 624.464 335.254C619.458 325.044 609.445 309.579 601.074 299.17C598.995 296.605 591.965 288.312 591.636 288.063C591.554 287.988 590.624 286.992 589.585 285.822C587.943 283.979 585.317 281.214 583.211 279.098C582.883 278.749 581.761 277.628 580.749 276.582C578.752 274.491 564.39 261.392 560.861 258.403C559.657 257.382 557.633 255.714 556.374 254.693C555.116 253.672 553.94 252.7 553.775 252.576C553.611 252.427 552.736 251.754 551.833 251.082C550.93 250.385 550.137 249.762 550.055 249.687C549.59 249.214 536.951 239.9 533.833 237.759C522.206 229.74 504.698 218.807 495.507 213.852L493.92 212.98L494.057 210.863C494.139 209.693 494.577 205.708 495.042 202.023C495.808 195.772 496.054 193.855 496.71 189.322C496.847 188.351 497.148 186.234 497.394 184.591C497.613 182.947 497.941 180.805 498.078 179.859C498.215 178.888 498.461 177.095 498.625 175.875C498.926 173.633 499.09 172.587 499.829 167.906C500.048 166.536 500.376 164.469 500.54 163.299C500.704 162.128 500.978 160.709 501.115 160.136C501.252 159.563 501.361 158.592 501.361 157.969C501.361 156.724 502.018 156.077 503.276 156.077C504.015 156.077 512.085 154.931 517.501 154.085C520.1 153.661 528.362 152.217 530.222 151.843C542.614 149.378 552.517 146.937 562.229 143.999C565.046 143.127 568.986 141.882 569.697 141.608C571.01 141.11 571.639 140.886 574.402 139.89C575.989 139.317 577.904 138.595 578.642 138.271C579.408 137.972 580.803 137.399 581.788 137.001C584.934 135.756 592.485 132.17 595.877 130.327C597.682 129.356 599.269 128.509 599.406 128.459C599.515 128.409 600.418 127.887 601.375 127.289C602.333 126.691 603.236 126.193 603.372 126.193C603.509 126.193 603.673 126.094 603.728 125.994C603.783 125.894 604.685 125.247 605.725 124.574C608.132 123.03 610.895 121.063 613.385 119.121C615.792 117.253 621.701 111.849 623.506 109.882C624.245 109.06 624.929 108.338 625.011 108.263C625.23 108.089 628.212 104.278 629.607 102.386C631.768 99.4473 635.707 92.0012 636.747 88.8385C636.911 88.3654 637.294 87.2697 637.595 86.3981C637.868 85.5264 638.197 84.4058 638.279 83.9077C638.388 83.4097 638.552 82.7124 638.689 82.3638C638.963 81.6416 639.373 78.6532 639.811 74.594C640.276 70.1862 639.565 63.8857 637.951 58.3323C637.239 55.8171 635.653 51.7081 634.695 49.7906C634.175 48.7696 633.765 47.898 633.765 47.8233C633.765 47.5742 630.619 42.6185 629.142 40.5267C624.956 34.6247 618.035 27.9008 610.923 22.7957C609.227 21.5755 601.84 16.8688 601.649 16.8688C601.594 16.8688 600.473 16.2711 599.132 15.5489C594.782 13.2081 587.068 9.89595 581.515 7.97842C577.411 6.55895 570.08 4.492 567.153 3.91923C566.551 3.79471 565.566 3.59549 564.964 3.47097C556.21 1.57834 548.961 0.681833 538.155 0.183772C532.438 -0.0652583 531.617 -0.0652583 525.434 0.208675ZM545.541 21.451C556.238 22.5467 568.274 25.2611 575.715 28.2246C576.262 28.4487 576.974 28.7226 577.274 28.8223C577.575 28.9219 579.545 29.7935 581.651 30.7149C591.992 35.297 600.664 41.3485 606.737 48.2466C611.524 53.7004 614.424 58.8304 616.175 64.9814C616.804 67.2725 616.886 68.0196 616.886 71.78C616.886 76.6361 616.449 78.7777 614.561 83.1856C613.549 85.5763 613.166 86.2984 611.196 89.4611C608.926 93.1468 604.302 98.0776 599.269 102.162C594.536 106.047 588.381 109.956 581.515 113.468C579.189 114.663 570.326 118.623 568.083 119.494C564.554 120.839 556.839 123.479 554.569 124.126C553.365 124.475 552.134 124.848 551.833 124.973C551.532 125.072 550.602 125.371 549.781 125.595C548.961 125.82 547.73 126.168 547.046 126.367C546.362 126.592 545.377 126.841 544.857 126.965C543.818 127.164 542.778 127.438 540.48 128.061C539.66 128.285 538.538 128.559 538.018 128.683C537.499 128.783 536.268 129.082 535.283 129.306C532.711 129.879 527.24 131.074 524.203 131.672C522.754 131.971 513.179 133.614 510.936 133.938C509.951 134.087 508.556 134.312 507.844 134.436C505.464 134.834 505.328 134.735 505.765 132.494C506.449 128.908 506.586 128.21 506.805 126.691C507.051 125.222 508.118 119.494 508.747 116.356C508.884 115.659 509.24 113.767 509.568 112.123C509.869 110.479 510.361 108.064 510.662 106.769C511.264 103.93 512.468 98.2519 512.878 96.1849C513.042 95.3631 513.261 94.2425 513.398 93.6946C513.535 93.1468 513.972 91.0798 514.355 89.0876C514.738 87.0953 515.176 84.9039 515.313 84.2315C515.449 83.5342 515.668 82.3887 515.832 81.6665C516.653 77.9808 515.614 74.594 512.769 71.7302C510.744 69.6881 506.176 68.3932 502.92 68.941C497.75 69.7877 494.33 73.0251 493.291 78.0057C493.072 79.1015 492.634 81.1684 492.306 82.6128C491.704 85.3521 491.458 86.5226 490.966 88.8884C489.926 94.1678 489.735 95.0892 489.187 97.6791C488.969 98.7749 488.64 100.344 488.476 101.166C488.312 101.987 488.093 103.158 487.956 103.78C487.71 105.15 486.342 111.276 486.042 112.496C485.932 112.97 485.741 113.767 485.631 114.24C485.549 114.713 485.358 115.56 485.221 116.107C485.084 116.655 484.838 117.776 484.674 118.598C484.291 120.391 483.087 125.471 482.759 126.691C482.622 127.164 482.321 128.459 482.075 129.555C481.5 132.095 480.625 135.507 480.269 136.702C480.023 137.574 479.914 137.649 479.011 137.649C478.464 137.649 476.987 137.748 475.674 137.898C469.464 138.545 468.233 138.62 446.95 139.591C440.11 139.915 409.554 139.94 398.912 139.666C389.091 139.392 372.13 138.719 369.778 138.52C368.437 138.396 362.227 137.997 356.51 137.649C349.288 137.2 347.592 137.076 347.482 136.901C347.346 136.702 348.412 134.81 348.741 134.71C348.878 134.66 348.987 134.511 348.987 134.386C348.987 134.162 355.005 125.944 356.674 123.927C357.194 123.279 358.288 121.885 359.109 120.814C362.036 117.054 372.541 104.453 373.334 103.78C373.416 103.706 373.963 103.083 374.565 102.411C375.139 101.713 375.714 101.116 375.796 101.041C375.878 100.966 376.562 100.244 377.301 99.4224C383.401 92.7483 388.353 87.8175 396.231 80.6206C402.55 74.868 409.225 69.1652 412.672 66.6001C413.247 66.1519 415.134 64.7324 416.858 63.4375C421.59 59.8265 427.089 55.9915 432.888 52.3058C435.323 50.712 443.311 46.0053 443.53 46.0053C443.612 46.0053 444.077 45.7314 444.57 45.3828C445.062 45.0341 445.527 44.7602 445.609 44.7602C445.691 44.7602 446.895 44.1376 448.263 43.3905C449.658 42.6434 450.834 42.0209 450.889 42.0209C450.944 42.0209 451.655 41.6722 452.448 41.2489C454.938 39.9041 460.846 37.1399 464.704 35.5461C470.531 33.1305 471.816 32.6324 474.825 31.5616C476.111 31.1133 477.534 30.6153 477.971 30.441C478.437 30.2666 481.309 29.3701 484.4 28.4487C487.491 27.5273 490.254 26.6806 490.555 26.5561C490.856 26.4565 491.403 26.307 491.786 26.2323C492.169 26.1825 492.908 26.0082 493.428 25.8837C502.729 23.493 513.945 21.7249 524.477 21.0027C527.705 20.7786 541.93 21.1023 545.541 21.451ZM173.141 23.2191C186.628 25.7592 198.665 34.7492 209.388 50.2389C210.017 51.1354 210.783 52.2809 211.084 52.779C211.413 53.3019 211.932 54.1486 212.261 54.6467C214.312 57.8841 220.139 69.0904 220.139 69.8126C220.139 69.8873 220.331 70.3605 220.577 70.8586C221.233 72.2282 221.398 72.6018 222.164 74.5193C223.012 76.6859 226.24 85.5763 226.705 87.0953C226.896 87.7179 227.142 88.4899 227.279 88.8385C227.525 89.5358 228.538 92.9226 228.921 94.4417C229.221 95.5375 229.468 96.4091 230.124 98.6753C230.343 99.4971 230.671 100.717 230.835 101.415C231 102.087 231.246 103.108 231.383 103.656C231.519 104.204 231.738 105.15 231.875 105.773C232.012 106.395 232.367 107.964 232.696 109.259C232.997 110.554 233.462 112.621 233.681 113.866C234.611 118.672 235.459 123.354 235.459 123.753C235.459 124.276 234.474 124.35 232.668 123.952C232.012 123.827 229.577 123.429 227.252 123.08C224.927 122.732 222.41 122.333 221.644 122.209C220.905 122.084 218.443 121.686 216.173 121.337C211.166 120.565 208.786 120.191 203.999 119.345C201.975 118.996 199.759 118.598 199.075 118.473C197.844 118.274 196.804 118.075 192.646 117.353C191.443 117.153 189.774 116.854 188.953 116.73C186.546 116.356 182.607 115.709 179.242 115.111C174.318 114.24 172.266 114.364 169.257 115.759C162.226 118.971 161.022 127.737 166.931 132.718C168.819 134.336 170.542 134.859 177.874 136.154C178.64 136.279 179.871 136.503 180.61 136.627C181.375 136.752 182.853 137.001 183.892 137.15C184.959 137.325 186.546 137.599 187.449 137.773C188.351 137.947 189.965 138.246 191.005 138.396C192.072 138.545 193.357 138.769 193.877 138.894C194.397 139.018 195.765 139.242 196.886 139.392C198.008 139.566 200.798 140.039 203.042 140.438C205.312 140.861 207.637 141.284 208.239 141.384C208.841 141.508 209.963 141.708 210.701 141.832C211.467 141.982 212.753 142.206 213.574 142.355C214.394 142.48 215.954 142.779 216.993 143.003C218.06 143.202 219.291 143.451 219.729 143.526C220.194 143.6 220.987 143.75 221.507 143.874C222.027 143.999 223.449 144.273 224.653 144.497C226.623 144.87 229.96 145.518 232.86 146.116C233.462 146.24 234.884 146.539 236.006 146.763C237.127 146.987 238.249 147.361 238.495 147.585C238.851 147.909 239.042 149.204 239.425 153.96C239.672 157.247 239.945 160.783 240 161.804C240.055 162.825 240.219 165.291 240.383 167.283C240.903 174.455 241.067 181.951 241.067 200.778C241.067 219.804 240.903 228.47 240.383 236.14C240.219 238.331 239.972 242.416 239.808 245.23C239.48 251.032 238.824 260.744 238.577 263.16C238.058 268.115 238.085 268.016 237.51 267.941C236.963 267.866 225.829 261.143 221.233 258.104C212.096 252.128 199.978 243.611 196.203 240.523C195.601 240.025 194.424 239.128 193.604 238.506C192.072 237.36 189.692 235.443 188.953 234.77C188.734 234.546 188.105 234.073 187.585 233.675C182.935 230.263 167.998 216.591 162.007 210.241C160.12 208.249 158.232 206.306 158.041 206.132C157.959 206.057 157.384 205.459 156.81 204.762C156.208 204.09 155.606 203.392 155.442 203.243C154.813 202.596 154.183 201.849 152.542 199.881C151.585 198.736 150.737 197.74 150.654 197.665C150.436 197.49 145.894 191.862 143.843 189.198C142.584 187.604 137.824 180.855 136.265 178.489C135.691 177.593 135.089 176.696 134.925 176.447C134.624 175.999 132.545 172.712 131.587 171.143C129.918 168.478 125.706 160.584 123.927 156.849C123.572 156.077 123.161 155.23 123.025 154.956C122.587 154.06 120.891 150.025 119.879 147.485C119.332 146.116 118.784 144.771 118.648 144.497C118.538 144.223 118.292 143.501 118.101 142.878C117.909 142.256 117.471 140.961 117.116 140.014C116.459 138.171 115.502 135.183 115.283 134.162C115.201 133.813 114.818 132.369 114.435 130.925C110.468 116.307 109.401 100.269 111.426 85.7755C111.891 82.4136 112.739 77.9808 113.341 75.6399C113.97 73.2244 115.392 68.3683 115.639 67.7955C115.748 67.5216 116.131 66.5005 116.459 65.5542C118.839 58.9549 122.532 51.9821 126.8 46.1797C136.593 32.732 149.232 24.514 162.554 22.8704C164.989 22.5716 170.734 22.7459 173.141 23.2191ZM265.769 153.188C267.082 153.512 268.45 153.835 268.833 153.91C269.517 154.035 273.593 155.006 278.408 156.176C279.83 156.5 282.484 157.148 284.29 157.571C286.095 157.994 287.873 158.443 288.256 158.542C288.639 158.667 289.432 158.866 290.034 159.015C292.715 159.638 294.138 160.011 301.743 161.979C303.959 162.576 304.041 162.726 303.001 164.469C302.536 165.266 301.907 166.362 301.606 166.91C301.305 167.457 300.703 168.528 300.266 169.275C299.253 171.043 295.095 178.689 293.591 181.602C292.961 182.823 291.949 184.79 291.32 185.96C288.803 190.841 287.435 193.481 287.435 193.556C287.435 193.606 286.943 194.627 286.314 195.847C285.685 197.042 285.028 198.412 284.809 198.835C284.59 199.283 284.262 200.031 284.043 200.479C283.824 200.902 283.414 201.774 283.113 202.396C282.593 203.492 282.046 204.613 280.706 207.327C280.35 208.049 280.049 208.697 280.049 208.747C280.049 208.821 279.776 209.419 279.475 210.067C278.353 212.358 278.134 212.806 278.134 212.955C278.134 213.03 277.861 213.653 277.56 214.3C276.384 216.641 276.192 217.089 275.809 218.085C275.59 218.633 275.235 219.455 275.016 219.903C274.359 221.223 269.271 233.152 267.055 238.506C266.344 240.224 265.66 241.843 265.551 242.117C265.414 242.391 265.058 243.337 264.73 244.233C264.402 245.13 263.964 246.176 263.772 246.599C263.581 246.998 263.335 247.57 263.225 247.844C263.034 248.318 263.006 248.318 262.76 247.72C262.623 247.371 262.569 246.475 262.651 245.728C262.815 244.358 262.924 242.565 263.362 234.895C263.499 232.703 263.745 223.962 263.937 215.47C264.347 196.42 263.909 172.612 262.952 162.303C262.705 159.488 262.295 154.06 262.268 153.263C262.268 152.416 262.623 152.391 265.769 153.188ZM474.087 159.937C474.06 160.335 473.923 161.182 473.731 161.804C473.567 162.427 473.321 163.373 473.184 163.921C472.993 164.818 472.555 166.262 471.789 168.777C471.652 169.25 471.433 170.097 471.297 170.645C471.16 171.193 470.804 172.488 470.476 173.509C469.354 177.319 469.026 178.39 468.752 179.237C468.616 179.71 468.397 180.507 468.26 180.98C467.877 182.474 466.591 186.732 466.236 187.803C466.017 188.351 465.579 189.771 465.251 190.941C464.266 194.303 463.609 196.27 463.336 196.669C463.117 196.992 462.98 196.992 462.46 196.694C461.503 196.146 444.104 188.202 440.63 186.732C438.907 185.985 436.39 184.914 435.022 184.342C433.682 183.744 431.138 182.698 429.414 182.001C427.691 181.279 426.022 180.606 425.721 180.482C422.411 179.112 420.879 178.489 420.797 178.489C420.715 178.489 419.894 178.166 418.964 177.767C418.007 177.394 416.311 176.696 415.189 176.248C414.067 175.8 412.371 175.128 411.414 174.729C410.456 174.331 409.554 174.007 409.417 174.007C409.28 174.007 408.952 173.907 408.678 173.783C408.432 173.658 407.912 173.459 407.529 173.31C407.146 173.185 406.298 172.836 405.614 172.563C404.93 172.314 402.167 171.268 399.459 170.296C396.751 169.3 394.289 168.404 393.988 168.279C393.687 168.18 392.1 167.607 390.432 167.034C388.79 166.461 385.507 165.316 383.182 164.494C380.857 163.672 378.641 162.9 378.258 162.801C377.875 162.676 376.726 162.303 375.659 161.929C374.62 161.58 373.197 161.107 372.513 160.908C370.27 160.211 369.422 159.787 369.75 159.488C369.942 159.314 371.337 159.314 374.62 159.513C382.033 160.011 391.635 160.31 407.365 160.559C428.621 160.883 449.357 160.485 468.944 159.314C470.613 159.215 472.446 159.14 473.047 159.165C474.087 159.19 474.142 159.239 474.087 159.937ZM330.33 169.798C331.807 170.222 333.394 170.72 333.886 170.919C334.379 171.118 335.008 171.268 335.309 171.268C335.582 171.268 335.911 171.367 335.993 171.517C336.075 171.641 336.403 171.766 336.704 171.766C336.978 171.766 337.443 171.865 337.716 171.99C337.962 172.114 340.041 172.737 342.285 173.409C344.555 174.057 346.525 174.679 346.662 174.754C346.826 174.854 347.236 175.003 347.619 175.078C348.659 175.252 359.765 178.813 368.136 181.627C369.559 182.125 371.419 182.748 372.24 183.022C373.58 183.47 376.288 184.416 377.848 184.964C378.149 185.089 379.434 185.537 380.72 185.96C382.006 186.409 383.483 186.932 384.003 187.131C385.425 187.679 385.617 187.753 391.526 189.895C396.915 191.862 401.675 193.655 403.289 194.303C403.754 194.502 405.395 195.15 406.982 195.772C408.569 196.37 410.593 197.167 411.496 197.515C412.399 197.889 413.383 198.287 413.684 198.387C415.928 199.283 417.323 199.856 422.985 202.272C425.475 203.343 428.183 204.488 430.755 205.559C434.995 207.327 449.712 214.126 454.582 216.516C456.688 217.562 456.661 217.413 455.539 220.6C454.992 222.169 454.445 223.639 454.308 223.863C454.144 224.112 454.035 224.535 454.035 224.784C454.035 225.058 453.925 225.357 453.761 225.432C453.624 225.506 453.488 225.855 453.488 226.204C453.488 226.527 453.378 227.001 453.214 227.25C453.077 227.474 452.092 230.089 451.026 233.027C448.919 238.854 446.758 244.557 446.402 245.354C446.266 245.628 445.883 246.574 445.554 247.471C444.624 249.936 441.068 258.752 440.083 261.043C439.946 261.317 438.606 264.505 437.047 268.14C433.053 277.529 426.241 292.471 423.177 298.522C422.739 299.419 422.083 300.689 421.754 301.386C421.071 302.78 419.429 305.993 418.061 308.608C417.569 309.554 416.694 311.247 416.146 312.343C412.645 319.167 404 334.482 403.207 335.304C402.632 335.901 402.468 335.877 399.459 334.88C399.158 334.781 398.365 334.557 397.681 334.382C396.997 334.208 396.204 333.984 395.903 333.884C395.602 333.76 394.371 333.386 393.167 333.038C389.857 332.066 382.58 329.875 381.13 329.402C380.392 329.153 377.82 328.356 373.197 326.887C367.753 325.193 356.866 321.582 354.869 320.81C354.431 320.661 353.309 320.262 352.406 319.964C350.738 319.391 345.048 317.374 343.789 316.9C343.406 316.751 342.859 316.552 342.558 316.452C341.683 316.153 339.084 315.182 338.181 314.834C337.744 314.659 335.09 313.663 332.3 312.642C326.938 310.65 319.935 307.935 317.664 306.989C316.925 306.69 315.859 306.267 315.339 306.068C314.819 305.844 313.588 305.345 312.603 304.947C311.618 304.524 310.333 304.001 309.731 303.752C309.129 303.503 307.46 302.805 306.038 302.183C304.615 301.585 302.263 300.589 300.84 299.991C297.311 298.497 279.475 290.404 276.083 288.735C273.812 287.615 273.32 287.291 273.265 286.743C273.183 286.245 275.481 279.322 276.493 276.981C276.739 276.433 278.353 272.025 279.037 270.008C279.283 269.311 280.213 266.796 281.144 264.405C282.074 262.014 282.922 259.773 283.058 259.424C283.578 257.955 288.065 246.774 288.995 244.607C289.761 242.839 289.843 242.64 290.171 241.743C290.363 241.27 290.664 240.523 290.855 240.124C291.047 239.701 291.594 238.431 292.086 237.261C292.578 236.09 293.153 234.77 293.344 234.347C293.563 233.899 293.919 233.077 294.138 232.529C294.357 231.981 294.712 231.159 294.904 230.711C295.123 230.288 296.189 227.897 297.284 225.432C298.378 222.966 299.5 220.451 299.8 219.828C300.566 218.285 300.949 217.463 301.797 215.595C302.208 214.698 302.892 213.279 303.329 212.407C303.767 211.536 304.123 210.789 304.123 210.739C304.123 210.664 304.424 210.042 304.779 209.319C305.135 208.597 305.874 207.053 306.448 205.883C307.023 204.712 307.98 202.82 308.554 201.649C309.156 200.479 309.922 198.96 310.278 198.287C312.384 194.153 313.397 192.236 317.555 184.591C321.877 176.647 324.148 172.587 325.734 170.072C326.528 168.777 326.801 168.777 330.33 169.798ZM495.835 238.78C497.75 239.9 501.47 242.216 504.097 243.885C515.805 251.381 517.282 252.402 528.881 260.794C535.967 265.924 545.815 274.017 553.748 281.214C560.095 286.967 562.666 289.432 567.043 293.915C567.7 294.587 568.329 295.21 568.411 295.285C568.821 295.633 575.825 303.378 577.192 304.997C578.04 306.018 579.244 307.462 579.846 308.16C585.345 314.659 591.281 322.902 596.779 331.643C598.64 334.631 604.138 344.692 605.315 347.257C605.807 348.328 606.354 349.573 606.573 349.997C607.339 351.615 607.695 352.462 608.324 353.931C608.652 354.753 609.035 355.65 609.144 355.924C610.129 358.09 613.166 366.582 613.795 368.998C613.932 369.471 614.287 370.766 614.588 371.861C614.917 372.957 615.3 374.352 615.436 374.974C615.573 375.597 615.901 376.942 616.12 377.963C618.364 387.401 619.567 400.575 619.02 409.191C618.664 414.471 617.926 420.646 617.187 424.407C616.722 426.723 615.053 433.397 614.643 434.493C614.506 434.841 614.26 435.613 614.069 436.236C613.74 437.332 612.619 440.345 612.154 441.341C612.044 441.615 611.798 442.237 611.607 442.711C611.415 443.184 611.059 444.03 610.786 444.578C610.54 445.126 609.965 446.297 609.527 447.193C606.464 453.643 601.211 461.139 596.342 466.095C595.494 466.966 594.7 467.838 594.591 467.987C594.071 468.784 587.889 473.491 585.153 475.184C582.636 476.728 578.451 478.77 575.633 479.816C571.584 481.335 565.593 482.207 561.08 481.958C556.073 481.684 551.997 480.688 546.362 478.322C544.584 477.55 539.331 474.437 537.143 472.818C534.38 470.751 529.045 465.696 526.501 462.758C523.711 459.47 521.057 456.059 521.057 455.71C521.057 455.561 520.948 455.411 520.839 455.361C520.565 455.287 519.17 453.145 516.735 449.16C515.778 447.592 512.577 441.789 512.577 441.64C512.577 441.565 512.03 440.469 511.373 439.199C510.717 437.904 510.088 436.584 509.978 436.236C509.869 435.887 509.568 435.165 509.294 434.617C509.048 434.069 508.665 433.272 508.474 432.874C507.735 431.28 504.233 422.116 503.823 420.671C503.714 420.248 503.221 418.754 502.729 417.309C502.264 415.865 501.58 413.674 501.224 412.453C500.13 408.618 498.926 404.285 498.625 402.99C498.461 402.293 498.215 401.297 498.078 400.749C497.941 400.201 497.641 398.906 497.394 397.885C497.148 396.864 496.847 395.569 496.71 395.021C496.574 394.473 496.41 393.677 496.327 393.278C496.136 392.332 494.248 382.595 494.057 381.524C493.947 380.926 494.03 380.677 494.33 380.553C494.796 380.403 500.458 381.2 507.79 382.47C508.556 382.595 510.772 382.918 512.714 383.217C516.024 383.69 522.945 384.836 528.444 385.807C534.462 386.878 537.745 387.451 539.249 387.7C540.152 387.849 541.137 387.999 541.438 388.073C541.739 388.148 543.353 388.397 544.994 388.671C546.663 388.92 549.043 389.343 550.329 389.568C555.225 390.414 556.921 390.315 560.177 388.945C561.791 388.273 564.198 386.231 564.964 384.886C566.004 383.043 566.223 382.047 566.223 379.656C566.223 377.066 565.84 375.871 564.526 374.078C561.846 370.492 559.767 369.745 546.909 367.728C545.076 367.429 543.462 367.155 541.438 366.781C538.593 366.258 535.638 365.735 534.052 365.511C532.438 365.262 531.261 365.063 528.033 364.54C527.131 364.391 525.216 364.042 523.793 363.768C522.371 363.494 520.51 363.145 519.69 362.996C518.869 362.847 517.693 362.647 517.091 362.523C516.489 362.398 515.012 362.124 513.808 361.9C512.604 361.676 511.1 361.402 510.471 361.253C509.075 360.979 507.461 360.68 505.601 360.331C503.604 359.958 497.996 358.837 495.479 358.289C494.276 358.04 492.853 357.766 492.306 357.692C491.732 357.592 491.185 357.393 491.02 357.218C490.501 356.621 490.063 351.64 489.105 335.628C488.285 322.055 488.175 317.249 488.312 299.767C488.449 283.082 488.586 278.5 489.598 260.669C490.227 249.662 491.075 238.232 491.376 237.061C491.567 236.314 491.595 236.314 495.835 238.78ZM466.755 258.727C466.126 265.999 465.388 289.756 465.388 304.125C465.388 319.142 466.044 337.62 466.892 347.382C467.084 349.548 467.138 351.491 467.056 351.715C466.892 352.138 466.673 352.138 464.293 351.615C463.035 351.341 452.722 348.901 451.381 348.552C449.466 348.079 448.372 347.805 447.333 347.581C446.731 347.457 445.773 347.232 445.226 347.108C444.652 346.958 443.776 346.734 443.311 346.61C442.819 346.485 441.67 346.211 440.767 345.962C439.864 345.738 438.278 345.34 437.211 345.091C434.338 344.393 434.147 344.344 431.192 343.547C429.688 343.123 427.937 342.7 427.308 342.551C425.967 342.277 425.365 341.779 425.803 341.281C426.186 340.882 435.733 323.599 437.129 320.81C437.676 319.715 438.77 317.573 439.536 316.079C440.302 314.56 442.053 311.098 443.393 308.359C446.484 302.083 446.484 302.133 447.168 300.689C447.497 300.041 447.989 299.02 448.29 298.398C448.591 297.775 448.837 297.227 448.837 297.152C448.837 297.103 449.165 296.405 449.548 295.608C449.931 294.812 450.369 293.94 450.478 293.666C450.588 293.392 450.944 292.67 451.244 292.047C451.545 291.425 452.475 289.308 453.351 287.316C454.226 285.323 455.102 283.306 455.321 282.833C455.539 282.36 455.84 281.737 455.95 281.463C456.305 280.667 458.904 274.64 459.533 273.121C459.862 272.374 460.272 271.403 460.463 271.004C460.655 270.581 460.901 269.983 461.011 269.635C461.12 269.286 461.366 268.663 461.558 268.265C461.749 267.842 462.05 267.119 462.242 266.646C462.433 266.173 462.679 265.55 462.789 265.277C462.898 265.003 463.199 264.28 463.473 263.658C463.746 263.035 464.047 262.313 464.184 262.039C464.293 261.765 464.54 261.093 464.731 260.545C464.923 259.997 465.196 259.449 465.306 259.3C465.415 259.175 465.524 258.827 465.524 258.528C465.524 258.229 465.716 257.855 465.935 257.681C466.154 257.507 466.345 257.158 466.345 256.909C466.345 256.635 466.482 256.436 466.646 256.436C466.892 256.436 466.92 257.059 466.755 258.727ZM270.064 309.405C275.973 312.144 284.536 316.054 287.6 317.374C293.645 319.964 296.655 321.259 298.925 322.18C300.211 322.703 302.044 323.45 303.029 323.873C304.013 324.272 305.846 325.019 307.132 325.542C308.418 326.065 310.223 326.787 311.181 327.185C312.138 327.584 312.959 327.908 313.014 327.908C313.096 327.908 313.78 328.182 314.573 328.505C315.366 328.829 316.816 329.402 317.801 329.775C318.786 330.149 320.017 330.622 320.536 330.821C321.795 331.319 322.342 331.519 323.737 331.992C324.366 332.191 325.488 332.614 326.199 332.913C326.91 333.187 327.786 333.536 328.142 333.66C328.47 333.785 329.017 333.984 329.373 334.133C330.467 334.557 335.582 336.375 341.738 338.516C345.048 339.687 348.248 340.807 348.85 341.032C350.683 341.679 351.011 341.804 351.859 342.053C353.309 342.501 358.124 344.144 359.163 344.543C360.805 345.165 360.121 345.414 357.358 345.24C355.99 345.141 352.16 344.966 348.85 344.842C345.54 344.717 339.33 344.493 335.035 344.344C324.913 343.97 291.238 343.945 282.101 344.319C269.462 344.842 264.402 345.066 259.942 345.315C257.535 345.464 255.456 345.464 255.347 345.365C255.237 345.265 255.265 344.667 255.429 344.07C255.839 342.576 256.14 341.43 256.468 340.11C256.714 339.089 257.07 337.869 258.301 333.76C258.575 332.938 258.876 331.867 258.985 331.394C259.094 330.921 259.395 329.85 259.669 329.028C260.353 326.687 261.146 323.998 261.857 321.557C262.213 320.312 262.76 318.469 263.088 317.448C263.718 315.481 263.882 314.983 264.593 312.592C265.851 308.384 266.18 307.612 266.617 307.786C266.699 307.836 268.259 308.558 270.064 309.405ZM340.233 365.237C347.537 365.511 357.084 365.959 359.656 366.134C361.817 366.308 369.039 366.756 373.197 367.005C379.899 367.404 381.842 367.578 381.979 367.802C382.17 368.051 380.994 369.795 377.355 374.75C374.428 378.76 367.863 387.127 365.182 390.364C362.446 393.627 355.908 401.222 355.361 401.745C355.087 402.019 354.677 402.467 354.458 402.766C354.239 403.04 353.446 403.937 352.68 404.733C351.941 405.555 350.218 407.373 348.85 408.818C347.51 410.287 345.704 412.13 344.856 412.951C344.008 413.773 342.203 415.566 340.835 416.936C332.819 424.98 319.634 436.286 311.783 441.889C311.263 442.262 310.223 443.034 309.457 443.607C308.171 444.603 301.825 448.936 298.05 451.452C294.521 453.768 286.068 458.773 283.058 460.317C282.539 460.591 280.323 461.736 278.134 462.882C275.946 464.003 271.596 466.095 268.423 467.489C262.432 470.154 262.049 470.303 258.711 471.573C257.59 472.021 256.359 472.495 255.976 472.644C254.936 473.042 254.417 473.242 251.462 474.213C249.957 474.711 248.48 475.234 248.179 475.334C247.878 475.458 247.14 475.682 246.538 475.857C245.936 476.006 245.198 476.23 244.897 476.355C243.994 476.678 240.848 477.625 239.972 477.849C231.328 479.941 229.823 480.289 224.243 481.285C219.236 482.207 216.255 482.605 209.607 483.327C205.34 483.776 188.598 483.701 183.892 483.203C171.172 481.833 161.296 479.467 150.928 475.284C148.411 474.263 144.089 472.295 142.584 471.449C141.709 470.976 140.916 470.602 140.779 470.602C140.642 470.602 140.533 470.477 140.533 470.353C140.533 470.204 140.423 470.104 140.286 470.104C139.986 470.104 135.007 466.991 133.174 465.671C131.259 464.302 129.672 463.007 127.292 460.915C117.034 451.9 111.426 440.146 112.602 430.159C113.067 426.349 113.423 425.054 115.146 420.97C116.131 418.629 117.307 416.587 119.332 413.723C119.906 412.902 120.918 411.557 121.602 410.735C123.408 408.544 130.958 401.72 133.83 399.703C146.113 391.012 161.597 384.139 181.43 378.61C183.236 378.112 185.205 377.564 185.807 377.415C186.409 377.265 187.202 377.066 187.585 376.967C188.461 376.718 194.014 375.373 196.832 374.75C199.102 374.227 203.096 373.405 204.136 373.231C204.738 373.132 206.16 372.882 207.282 372.658C209.416 372.26 215.625 371.164 218.224 370.741C222.547 370.068 223.422 369.969 223.668 370.118C224.051 370.317 224.051 371.164 223.696 372.534C223.559 373.132 223.313 374.352 223.148 375.273C222.765 377.664 222.328 380.03 221.89 382.321C221.671 383.416 221.37 384.936 221.233 385.683C221.097 386.43 220.796 388.048 220.55 389.294C219.948 392.456 218.99 397.138 217.705 403.364C217.075 406.302 216.255 410.237 215.872 412.08C215.489 413.923 215.078 415.94 214.942 416.562C214.805 417.185 214.559 418.455 214.394 419.426C214.203 420.373 213.957 421.643 213.82 422.215C213.464 423.734 213.519 427.744 213.929 428.765C215.188 431.928 217.869 434.368 221.179 435.364C222.328 435.688 223.285 435.763 225.419 435.688C227.963 435.613 228.373 435.514 229.987 434.742C233.598 432.998 235.459 430.483 236.279 426.324C236.444 425.627 236.69 424.382 236.854 423.585C237.018 422.813 237.237 421.668 237.374 421.045C237.483 420.422 237.839 418.754 238.14 417.309C238.796 414.371 239.179 412.678 239.562 410.76C240.082 408.07 241.231 402.442 241.477 401.172C241.641 400.475 241.86 399.28 242.024 398.558C242.161 397.86 242.325 396.989 242.407 396.64C242.544 395.968 243.748 390.788 244.049 389.543C244.432 387.974 244.732 386.753 245.033 385.309C245.198 384.487 245.471 383.367 245.58 382.819C245.717 382.271 246.018 380.976 246.264 379.955C246.894 377.265 247.14 376.244 247.468 374.974C247.632 374.352 248.07 372.459 248.48 370.741C248.891 369.023 249.301 367.503 249.438 367.354C249.985 366.756 266.371 365.636 284.016 365.013C291.895 364.739 331.287 364.889 340.233 365.237Z" fill="white"/>
<path d="M356.866 526.036C354.021 526.484 348.631 528.153 345.896 529.398C334.215 534.752 326.911 542.646 325.679 551.213C325.16 554.874 326.145 560.751 328.032 565.233C328.388 566.13 330.084 569.641 331.753 573.078C335.5 580.723 336.13 582.167 336.13 583.363V584.284L330.987 586.899C314.272 595.391 303.466 604.779 300.539 613.371C299.828 615.438 299.554 618.899 300.019 620.145C300.512 621.489 302.235 623.083 303.931 623.78C305.162 624.303 305.764 624.378 308.363 624.353C311.947 624.303 313.697 623.93 318.211 622.212C321.494 620.991 327.868 618.053 329.974 616.808C337.525 612.4 343.27 606 346.552 598.379C347.783 595.565 348.577 591.606 348.878 587.073L349.069 584.135L350.327 583.562C351.011 583.238 352.434 582.74 353.446 582.441C357.823 581.171 362.364 579.055 361.817 578.557C361.27 578.058 357.577 578.332 352.872 579.279C350.245 579.802 348.084 580.175 348.057 580.125C347.865 579.852 347.154 578.233 346.306 576.066C345.458 573.85 343.187 569.118 338.893 560.577C336.813 556.418 336.294 554.5 336.294 550.914C336.294 548.847 336.458 547.428 336.786 546.307C338.209 541.501 342.504 537.168 348.577 534.403C355.47 531.266 361.352 530.618 365.565 532.486C368 533.557 368.629 535.2 367.726 537.915C366.057 542.895 360.039 547.627 352.735 549.669C350.3 550.341 349.808 550.765 350.875 551.288C351.75 551.711 354.786 551.587 356.455 551.064C358.616 550.366 362.775 548.523 364.854 547.303C367.179 545.934 371.747 541.825 372.924 540.081C375.741 535.848 375.495 531.664 372.267 529.074C368.629 526.185 362.884 525.04 356.866 526.036ZM337.114 590.535C337.47 592.228 337.032 598.354 336.43 600.421C335.5 603.659 334.461 605.103 330.795 608.44C326.965 611.952 324.12 613.745 318.485 616.285C314.409 618.127 312.056 618.775 309.512 618.775C308.089 618.775 307.816 618.7 307.077 618.003C306.284 617.281 306.257 617.181 306.393 615.712C306.585 613.595 307.241 611.952 308.637 610.183C310.415 607.917 318.868 600.496 322.451 598.056C327.239 594.793 335.747 589.813 336.731 589.663C336.841 589.638 337.005 590.037 337.114 590.535Z" fill="white"/>
<path d="M299.746 527.107C296.244 528.128 293.7 529.722 289.022 533.806C280.268 541.501 269.572 555.297 259.642 571.758L258.055 574.423L255.949 575.444C252.721 577.037 249.328 579.478 245.444 583.039C241.45 586.675 239.261 589.14 236.115 593.498C230.671 601.144 227.498 609.088 227.471 615.189C227.443 618.924 228.264 620.045 231.109 620.219C232.641 620.319 232.969 620.244 235.048 619.298C238.112 617.878 240.848 615.538 243.748 611.827C248.015 606.398 251.134 601.119 259.915 584.608C263.143 578.532 263.499 578.183 267.466 576.888C272.034 575.394 275.645 574.672 279.502 574.522C281.691 574.423 283.496 574.497 284.481 574.672L286.04 574.971L285.63 576.265C285.384 576.988 284.454 579.802 283.551 582.541C278.244 598.529 276.849 604.506 277.095 610.109C277.232 613.072 277.533 613.969 278.654 615.114C281.034 617.48 286.068 615.787 291.347 610.856C292.633 609.66 293.454 608.664 293.454 608.341C293.454 608.067 293.344 607.818 293.235 607.818C293.126 607.818 291.977 608.216 290.718 608.689C289.433 609.162 288.119 609.561 287.791 609.561C287.189 609.561 287.162 609.486 287.162 607.369C287.162 605.85 287.463 603.783 288.119 600.82C289.241 595.665 289.898 593.424 293.372 583.388L295.998 575.767L299.171 575.643C301.579 575.543 302.673 575.394 303.63 574.995C304.889 574.497 305.956 573.427 305.655 573.003C305.409 572.63 302.263 571.559 300.019 571.086C298.898 570.837 297.858 570.563 297.721 570.438C297.612 570.339 298.624 566.628 299.965 562.195C303.001 552.334 304.123 548.349 305.354 542.771C307.05 534.951 307.269 531.714 306.202 529.572C304.861 526.833 303.029 526.136 299.746 527.107ZM297.01 536.719C297.01 537.442 296.873 538.662 296.709 539.384C296.135 541.899 291.211 558.659 289.433 564.113L287.654 569.616H283.359C278.682 569.641 276.438 569.99 270.502 571.609C268.806 572.082 267.356 572.43 267.301 572.381C266.946 572.057 270.721 565.333 274.222 560.004C277.669 554.799 281.609 549.594 285.028 545.759C288.995 541.327 295.724 535.35 296.791 535.35C296.901 535.35 297.01 535.972 297.01 536.719ZM248.453 591.805C243.447 602.439 240.328 607.942 237.292 611.528C236.115 612.923 234.31 614.292 233.626 614.292C232.969 614.292 233.188 611.603 234.118 608.664C236.17 602.065 245.115 588.991 250.094 585.355C250.97 584.683 251.79 584.16 251.9 584.16C251.982 584.16 250.45 587.596 248.453 591.805Z" fill="white"/>
<path d="M431.958 527.007C428.621 527.829 425.721 529.622 420.961 533.731C414.532 539.334 405.286 550.491 398.392 560.95C395.301 565.657 391.717 571.36 390.733 573.128C390.158 574.199 389.748 574.572 388.653 575.07C376.097 580.873 362.556 597.632 359.793 610.806C359.246 613.495 359.218 617.505 359.765 618.451C360.477 619.721 361.188 620.12 363.021 620.219C364.553 620.294 364.908 620.219 366.96 619.298C373.525 616.285 379.188 608.59 389.967 588.02C394.097 580.125 395.055 578.656 396.559 577.959C401.976 575.444 411.769 573.8 416.338 574.672L417.87 574.971L417.35 576.689C417.077 577.635 416.01 580.848 415.025 583.836C412.617 591.058 411.195 595.64 410.402 598.977C408.678 606.249 408.432 611.578 409.718 613.894C410.675 615.637 411.551 616.16 413.493 616.135C415.353 616.085 417.104 615.438 419.402 613.944C421.672 612.45 425.311 609.013 425.311 608.341C425.311 608.067 425.201 607.818 425.092 607.818C424.982 607.818 423.834 608.216 422.575 608.689C421.289 609.162 419.949 609.561 419.593 609.561H418.937L419.101 606.747C419.347 601.94 420.988 595.69 425.365 583.014L427.855 575.767L431.028 575.643C434.53 575.493 436.171 575.045 437.074 573.999C437.375 573.676 437.621 573.277 437.621 573.153C437.621 572.779 434.885 571.758 432.287 571.185C430.946 570.886 429.715 570.538 429.606 570.438C429.469 570.339 430.426 566.852 431.712 562.718C436.226 548.075 438.332 539.434 438.633 534.105C438.77 531.241 438.743 530.867 438.196 529.747C437.457 528.252 436.664 527.431 435.515 526.982C434.42 526.559 433.791 526.559 431.958 527.007ZM428.894 535.898C429.059 537.915 428.703 539.509 426.405 547.303C425.365 550.79 424.025 555.372 423.423 557.489C422.794 559.605 421.672 563.191 420.906 565.482L419.511 569.616H415.244C410.538 569.641 408.323 569.99 402.441 571.609C400.745 572.082 399.295 572.455 399.213 572.455C398.693 572.455 401.949 566.454 405.259 561.324C410.703 552.832 416.174 546.058 422.165 540.355C424.353 538.288 428.128 535.35 428.621 535.35C428.758 535.35 428.894 535.599 428.894 535.898ZM383.292 585.579C382.909 586.376 382.088 588.094 381.486 589.389C376.589 599.948 373.717 605.302 370.68 609.536C368.984 611.927 366.386 614.367 365.702 614.243C365.018 614.118 365.154 611.18 365.948 608.689C368.109 601.94 377.054 588.891 382.033 585.305C382.881 584.683 383.675 584.16 383.784 584.16C383.893 584.16 383.675 584.807 383.292 585.579Z" fill="white"/>
<path d="M506.59 526.339C503.253 527.161 500.353 528.954 495.593 533.063C489.164 538.666 479.918 549.823 473.024 560.282C469.933 564.989 466.349 570.692 465.364 572.46C464.79 573.531 464.379 573.904 463.285 574.402C450.729 580.205 437.187 596.964 434.424 610.138C433.877 612.828 433.85 616.837 434.397 617.783C435.108 619.053 435.82 619.452 437.652 619.551C439.184 619.626 439.54 619.551 441.592 618.63C448.157 615.617 453.82 607.922 464.598 587.352C468.729 579.458 469.686 577.988 471.191 577.291C476.608 574.776 486.401 573.132 490.97 574.004L492.502 574.303L491.982 576.021C491.708 576.967 490.641 580.18 489.657 583.168C487.249 590.39 485.827 594.972 485.033 598.309C483.31 605.581 483.064 610.91 484.349 613.226C485.307 614.969 486.182 615.492 488.125 615.467C489.985 615.417 491.736 614.77 494.034 613.276C496.304 611.782 499.942 608.345 499.942 607.673C499.942 607.399 499.833 607.15 499.724 607.15C499.614 607.15 498.465 607.548 497.207 608.021C495.921 608.494 494.581 608.893 494.225 608.893H493.568L493.733 606.079C493.979 601.273 495.62 595.022 499.997 582.346L502.487 575.099L505.66 574.975C509.161 574.826 510.803 574.377 511.706 573.331C512.007 573.008 512.253 572.609 512.253 572.485C512.253 572.111 509.517 571.09 506.918 570.517C505.578 570.218 504.347 569.87 504.237 569.77C504.101 569.671 505.058 566.184 506.344 562.05C510.858 547.407 512.964 538.766 513.265 533.437C513.402 530.573 513.374 530.199 512.827 529.079C512.089 527.585 511.295 526.763 510.146 526.314C509.052 525.891 508.423 525.891 506.59 526.339ZM503.526 535.23C503.69 537.247 503.335 538.841 501.037 546.635C499.997 550.122 498.657 554.704 498.055 556.821C497.426 558.937 496.304 562.523 495.538 564.815L494.143 568.948H489.875C485.17 568.973 482.954 569.322 477.073 570.941C475.377 571.414 473.927 571.787 473.845 571.787C473.325 571.787 476.58 565.786 479.89 560.656C485.334 552.164 490.805 545.39 496.796 539.687C498.985 537.62 502.76 534.682 503.253 534.682C503.389 534.682 503.526 534.931 503.526 535.23ZM457.923 584.911C457.54 585.708 456.72 587.426 456.118 588.721C451.221 599.28 448.349 604.634 445.312 608.868C443.616 611.259 441.017 613.699 440.333 613.575C439.649 613.45 439.786 610.512 440.579 608.021C442.741 601.273 451.686 588.223 456.665 584.637C457.513 584.015 458.306 583.492 458.416 583.492C458.525 583.492 458.306 584.139 457.923 584.911Z" fill="white"/>
<path d="M546.635 677.222C542.723 678.692 539.468 679.912 539.413 679.937C539.222 680.086 540.59 683.274 540.863 683.274C541.164 683.274 554.979 678.318 555.253 678.119C555.389 677.994 554.104 674.558 553.885 674.583C553.803 674.583 550.547 675.778 546.635 677.222Z" fill="white"/>
<path d="M13.1895 676.401C7.90977 677.347 4.7638 679.364 2.82151 683.025C1.26221 686.013 1.56313 689.873 3.61484 692.612C5.61184 695.302 8.62103 696.721 17.3477 699.087C24.1593 700.955 25.6639 701.528 27.2506 702.848C29.0014 704.267 29.6032 705.462 29.5759 707.554C29.5759 709.696 28.9467 710.916 27.1138 712.361C23.9679 714.901 17.375 715.598 12.3962 713.905C9.33229 712.859 6.59667 709.82 5.50242 706.234C5.25621 705.388 4.9553 704.69 4.87323 704.69C4.5176 704.715 0.140604 705.886 0.0311796 706.01C-0.242382 706.259 1.34428 710.094 2.43853 711.788C4.79116 715.399 8.42953 717.814 12.9707 718.736C15.5148 719.259 20.8766 719.259 23.6669 718.736C28.3996 717.889 31.9285 715.598 33.7887 712.186C34.7736 710.368 34.8009 710.269 34.8009 707.43C34.8009 704.69 34.7736 704.491 33.8982 702.897C32.6945 700.656 30.2051 698.539 27.1959 697.244C25.9649 696.697 22.3812 695.551 19.2079 694.729C10.4539 692.388 8.18333 691.193 7.41735 688.503C6.18632 684.145 10.536 680.534 17.0194 680.534C22.2171 680.534 26.4846 682.85 28.7005 686.885C29.1655 687.707 29.5759 688.429 29.6306 688.479C29.74 688.603 34.1991 687.507 34.4453 687.283C34.7736 687.009 32.886 683.672 31.5455 682.054C29.4117 679.538 26.5667 677.795 23.0377 676.799C20.5483 676.127 15.8431 675.927 13.1895 676.401Z" fill="white"/>
<path d="M78.9812 697.22V718.387H81.58H84.1789V697.22V676.052H81.58H78.9812V697.22Z" fill="white"/>
<path d="M519.69 697.22V718.387H522.288H524.887V697.22V676.052H522.288H519.69V697.22Z" fill="white"/>
<path d="M165.153 679.538V682.029H167.615H170.077V679.538V677.048H167.615H165.153V679.538Z" fill="white"/>
<path d="M335.309 679.289V681.531H343.242H351.175V699.959V718.387H353.774H356.373V699.959V681.531H364.17H371.966V679.289V677.048H353.637H335.309V679.289Z" fill="white"/>
<path d="M611.059 679.538V682.029H613.521H615.983V679.538V677.048H613.521H611.059V679.538Z" fill="white"/>
<path d="M51.242 686.91C47.631 687.707 43.8558 690.296 41.9409 693.31C38.3846 698.838 38.6855 707.903 42.5974 713.232C45.4698 717.167 48.9988 718.835 54.7709 719.059C60.3242 719.284 63.5249 718.263 66.835 715.274C70.2819 712.186 71.8686 708.227 71.8686 702.773C71.8686 699.087 71.3762 696.921 69.9263 694.256C67.8472 690.421 64.1541 687.707 59.8592 686.86C57.5886 686.436 53.3484 686.436 51.242 686.91ZM59.4762 691.392C62.075 692.04 64.455 694.206 65.5493 696.871C67.1907 700.83 66.8624 706.832 64.838 710.244C62.7863 713.631 58.2178 715.424 53.5673 714.652C48.1507 713.755 45.2236 710.069 44.868 703.694C44.3482 694.306 50.5307 689.101 59.4762 691.392Z" fill="white"/>
<path d="M140.204 686.91C136.621 687.682 133.037 690.097 131.095 692.986C127.511 698.34 127.511 707.305 131.122 712.684C131.642 713.456 132.846 714.776 133.803 715.598C136.758 718.113 139.849 719.134 144.417 719.134C145.867 719.134 147.727 719.01 148.521 718.86C150.627 718.462 153.664 717.067 155.25 715.772C156.536 714.701 158.588 712.236 158.588 711.713C158.588 711.589 158.013 711.265 157.302 710.966C156.563 710.692 155.524 710.294 154.977 710.069L153.992 709.671L153.281 710.767C150.901 714.452 144.308 715.897 139.548 713.78C135.061 711.788 132.818 705.886 134.077 699.436C134.843 695.601 137.223 692.612 140.396 691.492C142.502 690.77 146.25 690.695 148.329 691.367C150.764 692.139 151.858 692.986 153.828 695.626C154.074 695.974 154.375 695.925 156.481 695.103L158.834 694.181L158.232 693.16C157.384 691.716 154.32 689.001 152.651 688.18C149.478 686.636 143.98 686.063 140.204 686.91Z" fill="white"/>
<path d="M189.664 686.91C186.053 687.707 182.278 690.296 180.363 693.31C176.807 698.838 177.108 707.903 181.02 713.232C183.892 717.167 187.421 718.835 193.193 719.059C198.747 719.284 201.947 718.263 205.257 715.274C208.704 712.186 210.291 708.227 210.291 702.773C210.291 699.087 209.799 696.921 208.349 694.256C206.27 690.421 202.577 687.707 198.282 686.86C196.011 686.436 191.771 686.436 189.664 686.91ZM197.899 691.392C200.497 692.04 202.877 694.206 203.972 696.871C205.613 700.83 205.285 706.832 203.26 710.244C201.209 713.631 196.64 715.424 191.99 714.652C186.573 713.755 183.646 710.069 183.29 703.694C182.771 694.306 188.953 689.101 197.899 691.392Z" fill="white"/>
<path d="M229.468 686.91C227.115 687.358 225.118 688.279 223.449 689.649L222.054 690.795V689.026V687.258H219.729H217.404V702.823V718.387H220.002H222.601V709.347C222.601 704.392 222.738 699.61 222.875 698.714C223.477 695.302 225.747 692.513 228.702 691.567C230.89 690.869 234.364 690.969 236.279 691.766C238.222 692.588 239.398 693.509 240.301 694.904C241.696 697.095 241.805 698.066 241.942 708.6L242.079 718.387H244.678H247.277L247.14 708.476C246.976 697.643 246.812 696.198 245.334 693.31C242.735 688.279 236.088 685.59 229.468 686.91Z" fill="white"/>
<path d="M264.675 686.885C261.064 687.707 257.48 690.097 255.565 692.986C253.459 696.124 252.447 701.005 252.994 705.413C254.061 714.054 260.107 719.134 269.353 719.134C274.879 719.134 279.201 717.242 282.101 713.531C282.785 712.684 283.332 711.887 283.332 711.813C283.332 711.713 282.511 711.29 281.499 710.866C278.298 709.546 278.545 709.546 277.751 710.792C274.66 715.598 265.742 716.27 261.447 712.012C259.696 710.269 258.438 707.405 258.438 705.139V704.192H271.87H285.329L285.165 701.503C284.973 698.365 284.481 696.497 283.195 694.107C281.472 690.894 278.654 688.578 274.906 687.308C272.581 686.536 267.164 686.312 264.675 686.885ZM271.022 691.019C274.332 691.492 276.876 693.21 278.381 695.9C278.873 696.821 279.776 699.436 279.776 700.009C279.776 700.108 274.961 700.208 269.079 700.208H258.383L258.575 699.262C259.505 694.63 262.651 691.591 267.028 690.994C269.052 690.72 269.079 690.72 271.022 691.019Z" fill="white"/>
<path d="M299.144 686.91C297.01 687.383 295.533 688.08 293.946 689.45C290.39 692.488 290.034 696.995 293.098 700.009C294.822 701.652 297.229 702.673 302.892 704.068C309.512 705.736 311.782 706.732 312.767 708.476C313.916 710.493 312.248 713.232 309.32 714.129C307.734 714.627 304.478 714.876 302.481 714.627C300.101 714.353 298.269 713.581 296.819 712.211C295.724 711.19 294.548 708.974 294.548 707.928C294.548 707.181 294.165 707.131 291.73 707.704L289.432 708.227L289.679 709.248C290.116 711.09 291.73 713.855 293.18 715.249C295.806 717.764 299.883 719.134 304.807 719.134C311.892 719.134 316.542 716.719 317.938 712.286C318.868 709.422 318.02 706.583 315.667 704.491C313.588 702.648 311.153 701.627 305.463 700.208C298.186 698.39 296.6 697.543 296.272 695.327C296.053 693.658 297.858 691.84 300.402 691.218C302.235 690.77 306.749 691.044 308.363 691.716C310.004 692.363 311.564 693.708 312.548 695.227C312.931 695.85 313.287 696.373 313.314 696.423C313.342 696.472 314.463 696.273 315.831 695.974L318.293 695.451L317.883 694.53C316.214 690.869 312.248 687.831 307.925 686.885C305.764 686.436 301.25 686.436 299.144 686.91Z" fill="white"/>
<path d="M381.76 686.885C378.149 687.707 374.565 690.097 372.65 692.986C370.544 696.124 369.531 701.005 370.078 705.413C371.145 714.054 377.191 719.134 386.437 719.134C391.963 719.134 396.286 717.242 399.185 713.531C399.869 712.684 400.417 711.887 400.417 711.813C400.417 711.713 399.596 711.29 398.584 710.866C395.383 709.546 395.629 709.546 394.836 710.792C391.745 715.598 382.826 716.27 378.532 712.012C376.781 710.269 375.522 707.405 375.522 705.139V704.192H388.954H402.414L402.249 701.503C402.058 698.365 401.565 696.497 400.28 694.107C398.556 690.894 395.739 688.578 391.991 687.308C389.666 686.536 384.249 686.312 381.76 686.885ZM388.106 691.019C391.416 691.492 393.96 693.21 395.465 695.9C395.957 696.821 396.86 699.436 396.86 700.009C396.86 700.108 392.046 700.208 386.164 700.208H375.468L375.659 699.262C376.589 694.63 379.735 691.591 384.112 690.994C386.137 690.72 386.164 690.72 388.106 691.019Z" fill="white"/>
<path d="M419.511 686.91C415.928 687.682 412.344 690.097 410.402 692.986C406.818 698.34 406.818 707.305 410.429 712.684C410.949 713.456 412.152 714.776 413.11 715.598C416.064 718.113 419.156 719.134 423.724 719.134C425.174 719.134 427.034 719.01 427.827 718.86C429.934 718.462 432.97 717.067 434.557 715.772C435.843 714.701 437.895 712.236 437.895 711.713C437.895 711.589 437.32 711.265 436.609 710.966C435.87 710.692 434.831 710.294 434.284 710.069L433.299 709.671L432.587 710.767C430.207 714.452 423.615 715.897 418.855 713.78C414.368 711.788 412.125 705.886 413.383 699.436C414.149 695.601 416.529 692.612 419.703 691.492C421.809 690.77 425.557 690.695 427.636 691.367C430.071 692.139 431.165 692.986 433.135 695.626C433.381 695.974 433.682 695.925 435.788 695.103L438.141 694.181L437.539 693.16C436.691 691.716 433.627 689.001 431.958 688.18C428.785 686.636 423.286 686.063 419.511 686.91Z" fill="white"/>
<path d="M456.798 686.91C454.445 687.358 452.448 688.279 450.779 689.649L449.384 690.795V689.026V687.258H447.059H444.734V702.823V718.387H447.332H449.931V709.347C449.931 704.392 450.068 699.61 450.205 698.714C450.807 695.302 453.077 692.513 456.032 691.567C458.22 690.869 461.694 690.969 463.609 691.766C465.552 692.588 466.728 693.509 467.631 694.904C469.026 697.095 469.135 698.066 469.272 708.6L469.409 718.387H472.008H474.607L474.47 708.476C474.306 697.643 474.142 696.198 472.664 693.31C470.065 688.279 463.418 685.59 456.798 686.91Z" fill="white"/>
<path d="M491.95 686.91C488.339 687.707 484.564 690.296 482.649 693.31C479.093 698.838 479.394 707.903 483.306 713.232C486.178 717.167 489.707 718.835 495.479 719.059C501.033 719.284 504.233 718.263 507.543 715.274C510.99 712.186 512.577 708.227 512.577 702.773C512.577 699.087 512.085 696.921 510.635 694.256C508.556 690.421 504.863 687.707 500.568 686.86C498.297 686.436 494.057 686.436 491.95 686.91ZM500.185 691.392C502.783 692.04 505.163 694.206 506.258 696.871C507.899 700.83 507.571 706.832 505.546 710.244C503.495 713.631 498.926 715.424 494.276 714.652C488.859 713.755 485.932 710.069 485.576 703.694C485.057 694.306 491.239 689.101 500.185 691.392Z" fill="white"/>
<path d="M543.654 686.91C540.043 687.707 536.267 690.296 534.352 693.31C530.796 698.838 531.097 707.903 535.009 713.232C537.881 717.167 541.41 718.835 547.183 719.059C552.736 719.284 555.937 718.263 559.247 715.274C562.693 712.186 564.28 708.227 564.28 702.773C564.28 699.087 563.788 696.921 562.338 694.256C560.259 690.421 556.566 687.707 552.271 686.86C550 686.436 545.76 686.436 543.654 686.91ZM551.888 691.392C554.487 692.04 556.867 694.206 557.961 696.871C559.602 700.83 559.274 706.832 557.25 710.244C555.198 713.631 550.629 715.424 545.979 714.652C540.562 713.755 537.635 710.069 537.28 703.694C536.76 694.306 542.942 689.101 551.888 691.392Z" fill="white"/>
<path d="M581.05 686.86C575.934 688.005 571.83 692.015 570.271 697.394C569.533 699.909 569.478 704.939 570.134 707.679C571.502 713.431 575.934 717.814 581.46 718.86C583.32 719.209 587.095 719.209 588.955 718.86C591.007 718.462 592.922 717.64 594.591 716.42L596.013 715.399L596.041 717.067C596.15 722.247 595.74 723.841 593.907 725.634C592.375 727.128 590.433 728 587.806 728.373C583.676 728.946 580.229 727.975 577.849 725.584C576.645 724.364 576.59 724.339 575.715 724.613C575.223 724.762 574.183 725.186 573.39 725.559L571.967 726.232L572.542 727.053C573.335 728.199 577.22 731.013 579.189 731.86C582.445 733.254 587.205 733.379 591.39 732.183C595.138 731.113 598.366 728.697 599.734 725.983C601.156 723.168 601.211 722.571 601.211 704.242V687.258H599.023H596.834V689.126C596.834 690.147 596.779 690.994 596.697 690.994C596.615 690.994 595.959 690.471 595.247 689.848C593.797 688.578 590.843 687.184 588.682 686.785C586.794 686.437 582.855 686.461 581.05 686.86ZM589.53 691.243C594.317 692.588 597.162 697.568 596.725 703.844C596.232 710.817 592.703 714.577 586.411 714.851C582.363 715.025 579.49 713.855 577.411 711.215C575.934 709.347 575.223 707.156 575.031 703.943C574.621 697.095 577.384 692.413 582.609 691.093C584.551 690.62 587.506 690.67 589.53 691.243Z" fill="white"/>
<path d="M635.625 686.91C632.042 687.682 628.458 690.097 626.516 692.986C622.932 698.34 622.932 707.305 626.543 712.684C627.063 713.456 628.266 714.776 629.224 715.598C632.178 718.113 635.27 719.134 639.838 719.134C641.288 719.134 643.148 719.01 643.941 718.86C646.048 718.462 649.084 717.067 650.671 715.772C651.957 714.701 654.009 712.236 654.009 711.713C654.009 711.589 653.434 711.265 652.723 710.966C651.984 710.692 650.945 710.294 650.398 710.069L649.413 709.671L648.701 710.767C646.321 714.452 639.729 715.897 634.969 713.78C630.482 711.788 628.239 705.886 629.497 699.436C630.263 695.601 632.643 692.612 635.817 691.492C637.923 690.77 641.671 690.695 643.75 691.367C646.185 692.139 647.279 692.986 649.249 695.626C649.495 695.974 649.796 695.925 651.902 695.103L654.255 694.181L653.653 693.16C652.805 691.716 649.741 689.001 648.072 688.18C644.899 686.636 639.4 686.063 635.625 686.91Z" fill="white"/>
<path d="M669.957 686.885C666.592 687.557 664.076 688.927 661.942 691.268C661.176 692.089 660.574 692.861 660.574 692.961C660.574 693.086 661.614 693.609 662.899 694.107L665.252 695.053L665.69 694.455C666.483 693.384 667.878 692.338 669.246 691.741C670.285 691.268 671.161 691.118 673.322 691.044C677.508 690.894 680.216 691.766 682.158 693.907C682.951 694.779 684.1 697.319 683.799 697.568C683.745 697.618 680.544 698.066 676.714 698.589C669.191 699.56 665.908 700.357 663.501 701.752C660.629 703.42 659.124 705.96 659.124 709.173C659.124 714.701 663.501 718.686 670.012 719.059C675.182 719.383 680.954 716.968 683.882 713.307L684.647 712.336V715.349V718.387H686.836H689.024V707.604C689.024 701.204 688.888 696.398 688.724 695.75C687.93 692.588 685.222 689.45 682.131 688.055C678.875 686.611 673.787 686.138 669.957 686.885ZM684.1 702.748C684.073 704.616 683.362 707.554 682.568 709.024C681.201 711.564 678.109 713.631 674.362 714.527C670.915 715.349 668.097 714.801 666.045 712.933C663.638 710.742 663.528 707.953 665.717 705.861C667.276 704.342 669.301 703.769 677.125 702.574C684.511 701.478 684.1 701.453 684.1 702.748Z" fill="white"/>
<path d="M704.836 686.91C702.703 687.383 701.225 688.08 699.639 689.45C696.082 692.488 695.727 696.995 698.791 700.009C700.514 701.652 702.921 702.673 708.584 704.068C715.204 705.736 717.475 706.732 718.46 708.476C719.609 710.493 717.94 713.232 715.013 714.129C713.426 714.627 710.171 714.876 708.174 714.627C705.794 714.353 703.961 713.581 702.511 712.211C701.417 711.19 700.24 708.974 700.24 707.928C700.24 707.181 699.858 707.131 697.423 707.704L695.125 708.227L695.371 709.248C695.809 711.09 697.423 713.855 698.873 715.249C701.499 717.764 705.575 719.134 710.499 719.134C717.584 719.134 722.235 716.719 723.63 712.286C724.56 709.422 723.712 706.583 721.359 704.491C719.28 702.648 716.846 701.627 711.156 700.208C703.879 698.39 702.292 697.543 701.964 695.327C701.745 693.658 703.551 691.84 706.095 691.218C707.928 690.77 712.441 691.044 714.055 691.716C715.697 692.363 717.256 693.708 718.241 695.227C718.624 695.85 718.979 696.373 719.007 696.423C719.034 696.472 720.156 696.273 721.524 695.974L723.986 695.451L723.575 694.53C721.907 690.869 717.94 687.831 713.618 686.885C711.457 686.436 706.943 686.436 704.836 686.91Z" fill="white"/>
<path d="M91.8386 696.821C91.8386 707.455 92.0574 709.596 93.48 712.361C95.5317 716.37 100.675 719.134 106.036 719.134C109.456 719.109 112.575 718.113 115.31 716.171L116.733 715.15V716.768V718.387H119.058H121.383V702.823V687.258H118.784H116.186V696.647C116.186 706.857 115.994 708.525 114.708 710.518C113.833 711.887 112.082 713.332 110.468 713.979C109.483 714.403 108.663 714.527 106.611 714.527C104.368 714.527 103.793 714.427 102.48 713.855C99.7172 712.684 98.0211 710.667 97.3098 707.654C97.1183 706.832 96.9268 702.574 96.8448 696.771L96.708 687.258H94.2733H91.8386V696.821Z" fill="white"/>
<path d="M165.153 702.823V718.387H167.615H170.077V702.823V687.258H167.615H165.153V702.823Z" fill="white"/>
<path d="M611.059 702.823V718.387H613.521H615.983V702.823V687.258H613.521H611.059V702.823Z" fill="white"/>
</svg>
